Coordinates
version=1
nRows=7
nColumns=40
inDegrees=yes

Units are S.I. units (second, meters, Newtons, ...)
If the header above contains a line with 'inDegrees', this indicates whether rotational values are in degrees (yes) or radians (no).

endheader
time	pelvis_tilt	pelvis_list	pelvis_rotation	pelvis_tx	pelvis_ty	pelvis_tz	hip_flexion_r	hip_adduction_r	hip_rotation_r	knee_angle_r	knee_angle_r_beta	ankle_angle_r	subtalar_angle_r	mtp_angle_r	hip_flexion_l	hip_adduction_l	hip_rotation_l	knee_angle_l	knee_angle_l_beta	ankle_angle_l	subtalar_angle_l	mtp_angle_l	lumbar_extension	lumbar_bending	lumbar_rotation	arm_flex_r	arm_add_r	arm_rot_r	elbow_flex_r	pro_sup_r	wrist_flex_r	wrist_dev_r	arm_flex_l	arm_add_l	arm_rot_l	elbow_flex_l	pro_sup_l	wrist_flex_l	wrist_dev_l
      0.85500000	      2.73559212	      3.89687914	     -0.78762309	      0.39521836	      0.94526426	      0.21891697	     15.06438030	    -15.67701168	    -12.24781515	     68.52077572	      1.19591314	    -10.04759194	    -23.70232553	      0.00000000	      1.79272635	      4.24072797	    -18.48120609	     10.79637080	      0.18843222	      0.76915681	      6.49582976	      0.00000000	     -3.63425824	     -5.59328794	     -2.10443955	     40.58791045	    -15.13307358	     40.58791045	     75.79187709	     44.96346777	      0.00000000	      0.00000000	     40.58791045	    -15.13307358	     40.58791045	     75.79187709	     44.96346777	      0.00000000	      0.00000000
      0.86000000	      2.65084877	      3.81905780	     -0.57403933	      0.40141532	      0.94581682	      0.21843871	     15.86089445	    -15.44354704	    -12.40402894	     68.12241236	      1.18896039	     -9.28158395	    -23.46839783	      0.00000000	      1.25050812	      4.21978045	    -18.54551917	     10.38802811	      0.18130529	      0.77555054	      7.09239164	      0.00000000	     -3.54881702	     -5.47313045	     -2.22049272	     40.59101539	    -15.13291898	     40.59101539	     75.79007545	     44.96369816	      0.00000000	      0.00000000	     40.59101539	    -15.13291898	     40.59101539	     75.79007545	     44.96369816	      0.00000000	      0.00000000
      0.86500000	      2.57403921	      3.85433653	     -0.34484417	      0.40737347	      0.94625224	      0.21794017	     16.66849344	    -15.38182275	    -12.61713948	     67.66523256	      1.18098110	     -8.92763351	    -23.46089638	      0.00000000	      0.83179272	      4.28921272	    -18.71844182	     10.23822562	      0.17869075	      0.84853014	      7.23156735	      0.00000000	     -3.64445763	     -5.47219163	     -2.22797358	     40.59157661	    -15.13289106	     40.59157661	     75.78975039	     44.96373960	      0.00000000	      0.00000000	     40.59157661	    -15.13289106	     40.59157661	     75.78975039	     44.96373960	      0.00000000	      0.00000000
      0.87000000	      2.41094828	      3.73973922	     -0.14287382	      0.41365409	      0.94655935	      0.21765937	     17.48557941	    -15.00714648	    -12.65522381	     67.09937625	      1.17110504	     -7.83147569	    -23.14235410	      0.00000000	      0.29737506	      4.24163885	    -18.59065386	      9.63947488	      0.16824057	      0.84434172	      8.08491353	      0.00000000	     -3.29860449	     -5.36615566	     -2.31557731	     40.59368942	    -15.13278591	     40.59368942	     75.78852646	     44.96389547	      0.00000000	      0.00000000	     40.59368942	    -15.13278591	     40.59368942	     75.78852646	     44.96389547	      0.00000000	      0.00000000
      0.87500000	      2.50703561	      3.63640051	      0.18429254	      0.42005324	      0.94719077	      0.21677351	     17.86536478	    -14.85897686	    -13.04401686	     66.33937457	      1.15784051	     -6.97118732	    -22.15374108	      0.00000000	     -0.40704647	      4.16310268	    -18.80376403	      9.31033208	      0.16249595	      0.76416593	      9.14769672	      0.00000000	     -3.42395196	     -5.09673400	     -2.56706698	     40.60561910	    -15.13219279	     40.60561910	     75.78163893	     44.96476473	      0.00000000	      0.00000000	     40.60561910	    -15.13219279	     40.60561910	     75.78163893	     44.96476473	      0.00000000	      0.00000000
      0.88000000	      2.41285440	      3.73137835	      0.36795237	      0.42588912	      0.94728626	      0.21646262	     18.66704682	    -14.85001720	    -13.23002290	     65.71397047	      1.14692515	     -6.66348851	    -22.18975709	      0.00000000	     -0.76714974	      4.28050374	    -18.94031835	      9.21924459	      0.16090617	      0.85417133	      9.23110213	      0.00000000	     -3.50715854	     -5.13213135	     -2.55055289	     40.60607202	    -15.13217030	     40.60607202	     75.78137860	     44.96479728	      0.00000000	      0.00000000	     40.60607202	    -15.13217030	     40.60607202	     75.78137860	     44.96479728	      0.00000000	      0.00000000
      0.88500000	      2.22507062	      3.58422659	      0.60786722	      0.43225043	      0.94741337	      0.21595739	     19.37072607	    -14.44213882	    -13.27579820	     64.81866768	      1.13129917	     -5.67775188	    -21.52235456	      0.00000000	     -1.25129316	      4.19824776	    -18.81864751	      8.64098017	      0.15081355	      0.77497379	     10.03097899	      0.00000000	     -3.11710481	     -4.89838421	     -2.71812563	     40.61145915	    -15.13190283	     40.61145915	     75.77828283	     44.96518337	      0.00000000	      0.00000000	     40.61145915	    -15.13190283	     40.61145915	     75.77828283	     44.96518337	      0.00000000	      0.00000000
